# xmcd CD database file
#
# Track frame offsets:
#	150
#	89998
#	102686
#	115904
#	129014
#	142270
#	155783
#	169067
#	179977
#	189626
#	195017
#	203039
#	215230
#	224041
#	236058
#	250534
#	257940
#	266630
#	273592
#	284348
#
# Disc length: 3907 seconds
#
# Revision: 1
# Processed by: cddbd v1.5PL3 Copyright (c) Steve Scherf et al.
# Submitted via: CDex 1.50
#
DISCID=510f4114
DTITLE=Marron - お姉ちゃんの3乗(きゅーぶ)
DYEAR=2003
DGENRE=Game
TTITLE0=Data Track
TTITLE1=日だまりの天使
TTITLE2=宇宙のフェアリーテール
TTITLE3=空飛ぶ夢見姫
TTITLE4=ワルキューレの休息
TTITLE5=妖精と仲間達
TTITLE6=魔法がかけられたような安らぐ庭園で
TTITLE7=Elfinparty
TTITLE8=彷徨う一角獣の魂
TTITLE9=機械仕掛けなニンフ
TTITLE10=ペガサスは月夜を舞う
TTITLE11=Judgement Dragon
TTITLE12=アレンジ de おねえちゃん
TTITLE13=ピアノ de おねえちゃん
TTITLE14=ローレライの吐息
TTITLE15=悪魔の悪戯は竜巻のように
TTITLE16=ヒカリ ANGEL WING ver.
TTITLE17=ヒカリ ANGEL HALO ver.
TTITLE18=ヒカリ ANGEL HEART ver.
TTITLE19=ヒカリ
EXTD=YEAR: 2003
EXTT0=
EXTT1=
EXTT2=
EXTT3=
EXTT4=
EXTT5=
EXTT6=
EXTT7=
EXTT8=
EXTT9=
EXTT10=
EXTT11=
EXTT12=
EXTT13=
EXTT14=
EXTT15=
EXTT16=
EXTT17=
EXTT18=
EXTT19=
PLAYORDER=
